<svg width="25" height="25" viewBox="0 0 25 25" fill="none" xmlns="http://www.w3.org/2000/svg">
<g id="Vector">
<path id="Vector_2" d="M12.8204 13.7001L10.0598 16.448C9.94727 16.5596 9.85798 16.6923 9.79704 16.8385C9.7361 16.9848 9.70473 17.1416 9.70473 17.3C9.70473 17.4584 9.7361 17.6153 9.79704 17.7615C9.85798 17.9078 9.94727 18.0405 10.0598 18.152C10.1714 18.2645 10.3041 18.3538 10.4504 18.4147C10.5966 18.4756 10.7535 18.507 10.912 18.507C11.0704 18.507 11.2273 18.4756 11.3736 18.4147C11.5198 18.3538 11.6526 18.2645 11.7642 18.152L16.5653 13.3521C16.6746 13.2379 16.7602 13.1034 16.8174 12.9561C16.9374 12.6639 16.9374 12.3362 16.8174 12.0441C16.7602 11.8968 16.6746 11.7622 16.5653 11.6481L11.7642 6.84809C11.6523 6.7362 11.5194 6.64745 11.3732 6.5869C11.227 6.52635 11.0702 6.49518 10.912 6.49518C10.7537 6.49518 10.597 6.52635 10.4508 6.5869C10.3045 6.64745 10.1717 6.7362 10.0598 6.84809C9.94786 6.95997 9.85909 7.0928 9.79852 7.23899C9.73795 7.38517 9.70678 7.54185 9.70678 7.70008C9.70678 7.85831 9.73795 8.015 9.79852 8.16118C9.85909 8.30737 9.94786 8.44019 10.0598 8.55208L12.8204 11.3001H1.30972C0.991383 11.3001 0.686087 11.4265 0.46099 11.6515C0.235894 11.8766 0.109436 12.1818 0.109436 12.5001C0.109436 12.8183 0.235894 13.1235 0.46099 13.3486C0.686087 13.5736 0.991383 13.7001 1.30972 13.7001H12.8204ZM12.1123 0.50012C9.86904 0.490107 7.6679 1.10877 5.75852 2.28594C3.84914 3.46311 2.30794 5.15167 1.30972 7.16009C1.16647 7.44652 1.1429 7.77811 1.24419 8.08192C1.34548 8.38573 1.56334 8.63686 1.84984 8.78008C2.13635 8.92329 2.46802 8.94686 2.7719 8.84559C3.07578 8.74432 3.32697 8.52651 3.47023 8.24008C4.22903 6.70807 5.38327 5.40644 6.81367 4.46968C8.24406 3.53293 9.89872 2.99505 11.6066 2.91162C13.3146 2.82819 15.0138 3.20224 16.5287 3.99511C18.0436 4.78799 19.3193 5.97093 20.2239 7.42168C21.1285 8.87243 21.6291 10.5384 21.6742 12.2473C21.7192 13.9563 21.307 15.6463 20.48 17.1426C19.6531 18.639 18.4415 19.8874 16.9704 20.7589C15.4994 21.6304 13.8222 22.0934 12.1123 22.1C10.3225 22.1078 8.5668 21.6109 7.04669 20.6663C5.52658 19.7218 4.30365 18.3679 3.51824 16.76C3.37499 16.4736 3.12379 16.2558 2.81991 16.1545C2.51603 16.0533 2.18436 16.0768 1.89786 16.22C1.61135 16.3633 1.39349 16.6144 1.2922 16.9182C1.19091 17.222 1.21448 17.5536 1.35773 17.84C2.30935 19.7546 3.75532 21.3803 5.54608 22.5489C7.33684 23.7174 9.40736 24.3865 11.5435 24.4868C13.6796 24.5871 15.8037 24.115 17.6961 23.1194C19.5886 22.1238 21.1806 20.6408 22.3075 18.8238C23.4345 17.0068 24.0554 14.9218 24.1061 12.7845C24.1567 10.6471 23.6353 8.53503 22.5958 6.66669C21.5563 4.79834 20.0363 3.24159 18.1932 2.15744C16.3501 1.07329 14.2507 0.501123 12.1123 0.50012Z" fill="#AEAEAE"/>
</g>
</svg>
