<svg width="57" height="39" viewBox="0 0 57 39" fill="none" xmlns="http://www.w3.org/2000/svg">
<path d="M56.2296 18.3979C56.2296 8.26849 43.6446 0 28.1244 0C12.585 0 0 8.26849 0 18.3979C0 18.6665 0 19.3763 0 19.4722C0 30.2155 11.0119 38.9252 28.1244 38.9252C45.352 38.9252 56.2488 30.2155 56.2488 19.4722C56.2296 19.0885 56.2296 18.8775 56.2296 18.3979Z" fill="#141685"/>
<path d="M55.1553 18.3789C55.1553 27.9328 43.0499 35.6833 28.1244 35.6833C13.1989 35.6833 1.09351 27.9328 1.09351 18.3789C1.09351 8.82508 13.1989 1.09375 28.1244 1.09375C43.0499 1.09375 55.1553 8.82508 55.1553 18.3789Z" fill="#05B0D9"/>
<path d="M19.1461 12.9303C19.1269 12.9495 18.8583 13.2372 19.031 13.4675C19.4531 14.0046 20.7768 14.3308 22.1005 14.0238C22.8871 13.8511 23.9039 13.0454 24.9014 12.2588C25.9758 11.4147 27.0309 10.5706 28.0861 10.2253C29.2179 9.86078 29.9278 10.0143 30.4074 10.1677C30.9254 10.3212 31.5393 10.6665 32.5369 11.4147C34.3786 12.796 41.8221 19.2995 43.1075 20.4122C44.1434 19.9518 48.7477 17.9566 55.0018 16.5945C54.4647 13.2564 52.4311 10.2061 49.3616 7.71213C45.0835 9.51546 39.8461 10.4555 34.7239 7.94234C34.7047 7.92316 31.9229 6.61861 29.1988 6.67617C25.1317 6.77209 23.3667 8.53706 21.5058 10.3979L19.1461 12.9303Z" fill="white"/>
<path d="M42.8197 21.1029C42.7238 21.0261 34.0716 13.4483 32.1148 11.9711C30.9829 11.1269 30.3498 10.8967 29.6784 10.82C29.3331 10.7816 28.8534 10.8392 28.5273 10.9351C27.6065 11.1845 26.417 11.9902 25.3619 12.8152C24.2684 13.6977 23.2324 14.5034 22.2732 14.7336C21.0454 15.0022 19.549 14.6761 18.8583 14.2156C18.5898 14.0238 18.3787 13.8128 18.302 13.6017C18.0526 13.0262 18.513 12.5466 18.5898 12.4699L20.9878 9.87995C21.2564 9.61137 21.5442 9.32361 21.8319 9.05502C21.0646 9.15095 20.3547 9.34279 19.6449 9.55382C18.7816 9.80322 17.9375 10.0334 17.1126 10.0334C16.7672 10.0334 14.868 9.72648 14.5227 9.63056C12.3548 9.01665 10.4556 8.44112 7.61627 7.11739C4.22062 9.64974 1.95686 12.8152 1.2854 16.2876C1.76501 16.4218 2.55157 16.6521 2.89689 16.7288C10.5899 18.4362 12.9879 20.2012 13.41 20.5657C13.8896 20.0477 14.561 19.7024 15.3092 19.7024C16.1533 19.7024 16.9207 20.1244 17.4003 20.7959C17.8416 20.4506 18.4555 20.1436 19.242 20.1436C19.6065 20.1436 19.971 20.2012 20.3356 20.3355C21.1989 20.6424 21.6593 21.218 21.8895 21.7359C22.1773 21.6016 22.5418 21.5057 22.9638 21.5057C23.3859 21.5057 23.8079 21.6016 24.2492 21.7935C25.6688 22.4074 25.8799 23.7887 25.7647 24.8438C25.8607 24.8246 25.9758 24.8246 26.0717 24.8246C27.7599 24.8246 29.122 26.1867 29.122 27.875C29.122 28.3929 28.9877 28.8917 28.7575 29.3138C29.2179 29.5632 30.3882 30.1579 31.405 30.0236C32.2299 29.9277 32.5369 29.6399 32.652 29.4865C32.7287 29.3713 32.8054 29.2562 32.7287 29.1603L30.5609 26.7431C30.5609 26.7431 30.1964 26.3978 30.3306 26.2826C30.4458 26.1484 30.676 26.3402 30.8294 26.4745C31.9421 27.3953 33.285 28.7958 33.285 28.7958C33.3042 28.815 33.4002 28.9877 33.8989 29.0836C34.321 29.1603 35.0884 29.1219 35.6064 28.6807C35.7407 28.5656 35.8749 28.4313 35.9901 28.297L35.9709 28.3162C36.5272 27.6064 35.9133 26.8966 35.9133 26.8966L33.381 24.0573C33.381 24.0573 33.0165 23.7311 33.1508 23.5968C33.2659 23.4817 33.4961 23.6544 33.6496 23.7887C34.4553 24.4601 35.5872 25.592 36.6615 26.6663C36.8725 26.8198 37.8318 27.4145 39.0979 26.5896C39.8653 26.0908 40.0188 25.4769 39.9996 24.9973C39.942 24.3834 39.4624 23.9422 39.4624 23.9422L36.0092 20.4698C36.0092 20.4698 35.6447 20.1628 35.779 20.0093C35.8941 19.875 36.1243 20.0669 36.2778 20.2012C37.3713 21.122 40.3641 23.8654 40.3641 23.8654C40.4025 23.9038 41.4384 24.6328 42.7046 23.827C43.165 23.5393 43.4528 23.098 43.472 22.5801C43.4528 21.6208 42.8197 21.1029 42.8197 21.1029Z" fill="white"/>
<path d="M26.0525 25.5153C25.5153 25.5153 24.9206 25.8222 24.8439 25.7839C24.8055 25.7647 24.8823 25.5345 24.9206 25.4194C24.9782 25.3043 25.6688 23.1748 23.9614 22.4266C22.6377 21.8511 21.8319 22.5033 21.5634 22.7911C21.4866 22.8678 21.4674 22.8678 21.4482 22.7719C21.4291 22.3882 21.2564 21.3523 20.1053 21.0069C18.4747 20.5081 17.4387 21.64 17.1701 22.0621C17.055 21.1412 16.2684 20.4122 15.3092 20.4122C14.2733 20.4122 13.4291 21.2563 13.4291 22.2923C13.4291 23.3283 14.2733 24.1724 15.3092 24.1724C15.808 24.1724 16.2684 23.9805 16.6138 23.6544C16.6329 23.6736 16.6329 23.6736 16.6138 23.7119C16.537 24.1724 16.3836 25.8798 18.1677 26.5704C18.8775 26.839 19.4914 26.6472 19.9902 26.2827C20.1437 26.1676 20.1629 26.2251 20.1437 26.3594C20.0861 26.8006 20.1629 27.7215 21.4674 28.2587C22.465 28.6615 23.0597 28.2395 23.4434 27.8942C23.6161 27.7407 23.6545 27.7599 23.6736 28.0093C23.712 29.2754 24.7672 30.273 26.0333 30.273C27.3379 30.273 28.4122 29.2179 28.4122 27.8942C28.4122 26.5704 27.3571 25.5153 26.0525 25.5153Z" fill="white"/>
<path d="M43.165 20.2011C40.4984 17.8798 34.3402 12.5082 32.6712 11.2612C31.7119 10.5513 31.0597 10.1677 30.5033 9.99499C30.2539 9.91825 29.8894 9.82233 29.429 9.82233C29.0069 9.82233 28.5465 9.89907 28.0669 10.0525C26.9926 10.3979 25.9182 11.242 24.8823 12.0669L24.8247 12.1053C23.8463 12.8727 22.8487 13.6784 22.1005 13.8319C21.7744 13.9086 21.4291 13.947 21.0838 13.947C20.2396 13.947 19.4723 13.6976 19.1845 13.3331C19.1461 13.2755 19.1653 13.1796 19.2804 13.0261L19.2996 13.0069L21.6401 10.4746C23.4818 8.6329 25.2084 6.9063 29.218 6.81037C29.2755 6.81037 29.3522 6.81037 29.4098 6.81037C31.9038 6.81037 34.3786 7.92307 34.6663 8.05736C37.0068 9.18924 39.4049 9.76478 41.8221 9.78396C44.3353 9.78396 46.9444 9.17006 49.6878 7.90389C49.3808 7.65449 49.0739 7.40509 48.7285 7.15569C46.3305 8.19165 44.0283 8.72882 41.8221 8.72882C39.5584 8.72882 37.3138 8.19165 35.1268 7.11732C35.0117 7.05977 32.2683 5.77441 29.4098 5.77441C29.3331 5.77441 29.2563 5.77441 29.1796 5.77441C25.8223 5.85115 23.9422 7.04059 22.6569 8.09573C21.4291 8.1341 20.3547 8.42187 19.3955 8.69045C18.5514 8.92066 17.8224 9.13169 17.1126 9.13169C16.8248 9.13169 16.2876 9.11251 16.2493 9.11251C15.4243 9.09332 11.2997 8.07655 7.99997 6.82956C7.65465 7.05977 7.3477 7.30917 7.02156 7.55857C10.4556 8.95903 14.6378 10.0525 15.9615 10.1485C16.326 10.1677 16.7289 10.206 17.1126 10.206C17.9759 10.206 18.8584 9.95662 19.7025 9.72641C20.2013 9.59212 20.7576 9.43864 21.3332 9.32354C21.1797 9.47701 21.0262 9.63049 20.8727 9.78396L18.4747 12.3355C18.2828 12.5273 17.88 13.0261 18.1485 13.6592C18.2636 13.9086 18.4747 14.158 18.7816 14.3499C19.3572 14.7335 20.3739 14.9829 21.314 14.9829C21.6785 14.9829 22.0046 14.9446 22.3307 14.8678C23.3283 14.6376 24.3835 13.8127 25.4962 12.9302C26.3787 12.2204 27.6448 11.3379 28.6041 11.0693C28.8726 10.9926 29.1988 10.9542 29.4674 10.9542C29.5441 10.9542 29.6208 10.9542 29.6976 10.9734C30.3307 11.0501 30.9446 11.2612 32.0381 12.0861C33.9949 13.5633 42.6471 21.1412 42.743 21.1987C42.743 21.1987 43.2993 21.6783 43.261 22.4649C43.2418 22.9061 42.9924 23.2898 42.5703 23.5776C42.2058 23.8078 41.8221 23.9229 41.4384 23.9229C40.8629 23.9229 40.46 23.6543 40.4409 23.6351C40.4025 23.6159 37.4481 20.8918 36.3546 19.9709C36.1819 19.8174 36.0093 19.7023 35.8366 19.7023C35.7407 19.7023 35.6639 19.7407 35.6064 19.8174C35.4337 20.0285 35.6256 20.3162 35.8558 20.5081L39.3282 23.9996C39.3282 23.9996 39.7694 24.4025 39.8078 24.9397C39.827 25.5152 39.5584 25.9948 38.9828 26.3785C38.58 26.6471 38.1579 26.7814 37.755 26.7814C37.2179 26.7814 36.8534 26.532 36.7574 26.4744L36.2586 25.9756C35.357 25.074 34.4169 24.1531 33.7263 23.5776C33.5536 23.4433 33.381 23.309 33.2083 23.309C33.1316 23.309 33.0548 23.3474 32.9973 23.4049C32.9206 23.5008 32.863 23.6543 33.0548 23.9037C33.1316 24.0188 33.2275 24.0956 33.2275 24.0956L35.7598 26.9349C35.779 26.954 36.2778 27.5488 35.8174 28.1435L35.7215 28.2586C35.6447 28.3353 35.568 28.4121 35.4913 28.4888C35.0692 28.8341 34.4745 28.8725 34.2635 28.8725C34.1484 28.8725 34.0333 28.8533 33.9181 28.8341C33.6687 28.7957 33.4961 28.719 33.4193 28.6231L33.381 28.5847C33.2467 28.4504 31.9613 27.1459 30.9062 26.2634C30.7719 26.1483 30.5992 25.9948 30.4074 25.9948C30.3115 25.9948 30.2347 26.0332 30.1772 26.0907C29.9662 26.3209 30.2731 26.6663 30.4074 26.7814L32.556 29.1602C32.556 29.1794 32.5177 29.237 32.4793 29.3137C32.4026 29.4288 32.134 29.6782 31.3666 29.7741C31.2707 29.7933 31.1748 29.7933 31.0788 29.7933C30.2731 29.7933 29.4098 29.4096 28.9686 29.1602C29.1796 28.7382 29.2755 28.2586 29.2755 27.7982C29.2755 26.014 27.8367 24.5752 26.0525 24.5752C26.0142 24.5752 25.9758 24.5752 25.9374 24.5752C25.995 23.7694 25.8799 22.2347 24.3067 21.5632C23.8463 21.3714 23.4051 21.2754 22.9638 21.2754C22.6185 21.2754 22.2924 21.333 21.9854 21.4481C21.6593 20.815 21.1221 20.3546 20.4123 20.1052C20.0286 19.9709 19.6257 19.8942 19.2612 19.8942C18.609 19.8942 17.9951 20.086 17.4579 20.4697C16.9399 19.8366 16.1534 19.4529 15.3476 19.4529C14.6378 19.4529 13.9471 19.7407 13.4292 20.2395C12.7577 19.7215 10.0911 18.0333 2.97364 16.4218C2.62832 16.345 1.84176 16.1148 1.34297 15.9805C1.26623 16.3642 1.20868 16.7479 1.15112 17.1508C1.15112 17.1508 2.47485 17.4577 2.72425 17.5153C10.0143 19.1268 12.4124 20.815 12.8153 21.1412C12.681 21.4673 12.6042 21.8318 12.6042 22.1963C12.6042 23.6927 13.832 24.9205 15.3284 24.9205C15.5011 24.9205 15.6737 24.9013 15.8272 24.8821C16.0574 25.9948 16.7864 26.8197 17.88 27.261C18.2061 27.3761 18.5322 27.4528 18.8584 27.4528C19.0694 27.4528 19.2804 27.4336 19.4723 27.3761C19.6833 27.8941 20.1437 28.5463 21.1605 28.9684C21.525 29.1219 21.8895 29.1986 22.2348 29.1986C22.5226 29.1986 22.8104 29.1411 23.0598 29.0451C23.5585 30.2538 24.7288 31.0403 26.0333 31.0403C26.8966 31.0403 27.7408 30.695 28.3355 30.0619C28.8535 30.3497 29.947 30.8677 31.0597 30.8677C31.194 30.8677 31.3282 30.8485 31.4817 30.8485C32.5752 30.7142 33.0932 30.2729 33.3234 29.9468C33.3618 29.8893 33.4002 29.8317 33.4385 29.755C33.7071 29.8317 33.9757 29.8893 34.3018 29.8893C34.8966 29.8893 35.4721 29.6782 36.0668 29.2562C36.6423 28.8341 37.0452 28.2586 37.1028 27.7406V27.7214C37.2946 27.7598 37.4865 27.779 37.6975 27.779C38.3114 27.779 38.9253 27.5871 39.5008 27.2034C40.6135 26.4744 40.8245 25.5152 40.8054 24.8821C40.9972 24.9205 41.2082 24.9397 41.4001 24.9397C41.9756 24.9397 42.5511 24.767 43.0883 24.4217C43.7789 23.9804 44.201 23.2898 44.2586 22.5032C44.2969 21.9661 44.1626 21.4289 43.8941 20.9493C45.7741 20.1436 50.0714 18.5704 55.1361 17.4386C55.0978 17.0549 55.0402 16.652 54.9827 16.2683C48.8628 17.7071 44.2969 19.6831 43.165 20.2011ZM26.0525 30.0811C24.8631 30.0811 23.9039 29.1602 23.8463 27.9708C23.8463 27.8749 23.8271 27.6063 23.5969 27.6063C23.501 27.6063 23.4243 27.6639 23.3283 27.7406C23.0598 27.99 22.7336 28.2202 22.254 28.2202C22.043 28.2202 21.7936 28.1627 21.5442 28.0667C20.2972 27.5679 20.278 26.7046 20.3164 26.3593C20.3356 26.2634 20.3356 26.1675 20.278 26.0907L20.2013 26.014H20.1245C20.067 26.014 19.9902 26.0332 19.9135 26.1099C19.549 26.3593 19.2037 26.4936 18.8392 26.4936C18.6473 26.4936 18.4363 26.4552 18.2445 26.3785C16.5946 25.7262 16.7289 24.1723 16.8056 23.7119C16.8248 23.6159 16.7864 23.5392 16.7289 23.5008L16.6138 23.4049L16.4987 23.5008C16.1725 23.8078 15.7505 23.9804 15.3092 23.9804C14.3692 23.9804 13.6018 23.2131 13.6018 22.273C13.6018 21.333 14.3692 20.5656 15.3284 20.5656C16.1917 20.5656 16.9207 21.2179 17.0167 22.062L17.0742 22.5224L17.3236 22.1387C17.3428 22.1004 18.0526 21.0452 19.3188 21.0452C19.5682 21.0452 19.8176 21.0836 20.067 21.1603C21.0838 21.4673 21.2564 22.3881 21.2756 22.7718C21.2948 23.002 21.4483 23.002 21.4866 23.002C21.5826 23.002 21.6401 22.9445 21.6785 22.9061C21.8703 22.7143 22.2924 22.369 22.9446 22.369C23.2516 22.369 23.5585 22.4457 23.8847 22.58C25.4962 23.2706 24.7672 25.3234 24.7672 25.3425C24.6329 25.6879 24.6137 25.8413 24.748 25.9181L24.8055 25.9564H24.8439C24.9206 25.9564 25.0166 25.9181 25.1509 25.8797C25.3619 25.803 25.7072 25.6879 26.0142 25.6879C27.2228 25.707 28.2204 26.6855 28.2204 27.8941C28.2396 29.1027 27.2611 30.0811 26.0525 30.0811Z" fill="#141685"/>
</svg>
