<svg width="25" height="25" viewBox="0 0 25 25" fill="none" xmlns="http://www.w3.org/2000/svg">
<path d="M0.5 24.6138C0.730309 23.7656 0.948875 22.952 1.17136 22.1398C1.48387 20.998 1.80617 19.8595 2.10499 18.7138C2.14544 18.5579 2.12195 18.3458 2.04562 18.2036C-1.45796 11.6695 1.61436 3.67717 8.59541 1.18487C15.4949 -1.27873 23.0827 3.16109 24.323 10.3868C25.4674 17.054 20.9401 23.3422 14.2899 24.3032C11.7754 24.6666 9.37898 24.2595 7.10133 23.1288C6.93692 23.0473 6.70204 23.0212 6.52458 23.0662C4.62012 23.5497 2.72089 24.0533 0.819693 24.5505C0.728352 24.5746 0.634402 24.5877 0.5 24.6144L0.5 24.6138ZM3.36941 21.7887C4.56206 21.4749 5.6862 21.1859 6.80578 20.8792C7.03544 20.8166 7.20964 20.8479 7.41254 20.9693C9.34179 22.1228 11.4322 22.5958 13.6642 22.3414C19.0624 21.7255 22.9444 16.9157 22.4322 11.5057C21.8366 5.21561 15.5197 1.06221 9.51208 3.01103C3.40007 4.99443 0.738138 12.1086 4.0636 17.6106C4.2913 17.9877 4.35002 18.3041 4.21953 18.7256C3.91354 19.7179 3.66039 20.7272 3.36941 21.7894V21.7887Z" fill="#ECF6EF"/>
<path d="M15.6033 18.6184C15.2399 18.5349 14.7682 18.4566 14.3148 18.317C11.3605 17.4049 9.18924 15.5135 7.5699 12.922C7.00163 12.0119 6.46207 11.0985 6.34071 10.0082C6.2024 8.76274 6.61408 7.7195 7.55098 6.8896C7.95223 6.53402 8.71362 6.43812 9.17554 6.7154C9.36475 6.82892 9.5409 7.03509 9.62442 7.23931C9.93758 8.002 10.2312 8.77514 10.483 9.56001C10.545 9.75248 10.4811 10.0396 10.3721 10.2203C10.1953 10.5139 9.92649 10.7507 9.70727 11.0202C9.41629 11.3783 9.41042 11.5317 9.63551 11.931C10.5156 13.4922 11.7651 14.6634 13.3661 15.4632C13.9018 15.7307 14.0636 15.7053 14.4681 15.2597C14.7454 14.9537 15.0174 14.6425 15.2758 14.3208C15.4422 14.1134 15.6386 14.0253 15.8728 14.1447C16.7523 14.5935 17.633 15.0431 18.4917 15.5311C18.6163 15.6016 18.6861 15.8893 18.6704 16.0667C18.5549 17.3383 18.0271 18.0227 16.4267 18.5023C16.201 18.5701 15.9556 18.5708 15.6033 18.6184Z" fill="#ECF6EF"/>
</svg>
